STARTFONT 2.1
FONT threebyseven
COPYRIGHT Copyright (C) 2021 by Toitware ApS.  Use of this source code is governed by an MIT-style license that can be found in the LICENSE file.

COMMENT A font where numbers are 3x7 in a 7-segment LCD style.
COMMENT The other characters are proportional and do their best
COMMENT   with only 7 pixels of height, 4 for lower case.
COMMENT   's' and 'e' are hard to read.
COMMENT The only non-ASCII character is the degree sign.
COMMENT Descenders go one pixel below the line making the font 3x8.

STARTCHAR space
ENCODING 32
DWIDTH 4 0
BBX 1 1 0 0
BITMAP
00
ENDCHAR

STARTCHAR exclam
ENCODING 33
DWIDTH 2 0
BBX 1 7 0 0
BITMAP
80
80
80
80
80
00
80
ENDCHAR

STARTCHAR quotedbl
ENCODING 34
DWIDTH 4 0
BBX 3 2 0 5
BITMAP
A0
A0
ENDCHAR

STARTCHAR hash
ENCODING 35
DWIDTH 6 0
BBX 5 7 0 0
BITMAP
50
F8
50
50
50
F8
50
ENDCHAR

STARTCHAR dollar
ENCODING 36
DWIDTH 6 0
BBX 5 7 0 0
BITMAP
70
A8
A0
70
28
A8
70
ENDCHAR

STARTCHAR percent
ENCODING 37
DWIDTH 6 0
BBX 5 5 0 1
BITMAP
88
10
20
40
88
ENDCHAR

STARTCHAR quotesingle
ENCODING 39
DWIDTH 2 0
BBX 1 2 0 5
BITMAP
80
80
ENDCHAR

STARTCHAR ampersand
ENCODING 38
DWIDTH 6 0
BBX 5 7 0 0
BITMAP
40
A0
A0
E0
90
98
68
ENDCHAR

STARTCHAR parenleft
ENCODING 40
DWIDTH 3 0
BBX 2 7 0 0
BITMAP
40
80
80
80
80
80
40
ENDCHAR

STARTCHAR parenright
ENCODING 41
DWIDTH 3 0
BBX 2 7 0 0
BITMAP
80
40
40
40
40
40
80
ENDCHAR

STARTCHAR asterisk
ENCODING 42
DWIDTH 8 0
BBX 7 4 0 2
BITMAP
A8
70
70
A8
ENDCHAR

STARTCHAR plus
ENCODING 43
DWIDTH 4 0
BBX 3 3 0 2
BITMAP
40
E0
40
ENDCHAR

STARTCHAR comma
ENCODING 44
DWIDTH 2 0
BBX 2 2 -1 0
BITMAP
40
80
ENDCHAR

STARTCHAR hyphen
ENCODING 45
DWIDTH 4 0
BBX 3 1 0 3
BITMAP
E0
ENDCHAR

STARTCHAR period
ENCODING 46
DWIDTH 2 0
BBX 1 1 0 0
BITMAP
80
ENDCHAR

STARTCHAR slash
ENCODING 47
DWIDTH 6 0
BBX 5 5 0 1
BITMAP
08
10
20
40
80
ENDCHAR

STARTCHAR zero
ENCODING 48
DWIDTH 4 0
BBX 3 7 0 0
BITMAP
E0
A0
A0
A0
A0
A0
E0
ENDCHAR

STARTCHAR one
ENCODING 49
DWIDTH 4 0
BBX 1 7 2 0
BITMAP
80
80
80
80
80
80
80
ENDCHAR

STARTCHAR two
ENCODING 50
DWIDTH 4 0
BBX 3 7 0 0
BITMAP
E0
20
20
E0
80
80
E0
ENDCHAR

STARTCHAR three
ENCODING 51
DWIDTH 4 0
BBX 3 7 0 0
BITMAP
E0
20
20
E0
20
20
E0
ENDCHAR

STARTCHAR four
ENCODING 52
DWIDTH 4 0
BBX 3 7 0 0
BITMAP
A0
A0
A0
E0
20
20
20
ENDCHAR

STARTCHAR five
ENCODING 53
DWIDTH 4 0
BBX 3 7 0 0
BITMAP
E0
80
80
E0
20
20
E0
ENDCHAR

STARTCHAR six
ENCODING 54
DWIDTH 4 0
BBX 3 7 0 0
BITMAP
E0
80
80
E0
A0
A0
E0
ENDCHAR

STARTCHAR seven
ENCODING 55
DWIDTH 4 0
BBX 3 7 0 0
BITMAP
E0
20
20
20
20
20
20
ENDCHAR

STARTCHAR eight
ENCODING 56
DWIDTH 4 0
BBX 3 7 0 0
BITMAP
E0
A0
A0
E0
A0
A0
E0
ENDCHAR

STARTCHAR nine
ENCODING 57
DWIDTH 4 0
BBX 3 7 0 0
BITMAP
E0
A0
A0
E0
20
20
E0
ENDCHAR

STARTCHAR colon
ENCODING 58
DWIDTH 2 0
BBX 1 3 0 1
BITMAP
80
00
80
ENDCHAR

STARTCHAR semicolon
ENCODING 59
DWIDTH 2 0
BBX 2 4 -1 0
BITMAP
40
00
40
80
ENDCHAR

STARTCHAR less
ENCODING 60
DWIDTH 4 0
BBX 3 5 0 1
BITMAP
20
40
80
40
20
ENDCHAR

STARTCHAR equal
ENCODING 61
DWIDTH 4 0
BBX 3 3 0 2
BITMAP
E0
00
E0
ENDCHAR

STARTCHAR greater
ENCODING 62
DWIDTH 4 0
BBX 3 5 0 1
BITMAP
80
40
20
40
80
ENDCHAR

STARTCHAR question
ENCODING 63
DWIDTH 5 0
BBX 4 7 0 0
BITMAP
60
90
10
20
20
00
20
ENDCHAR

STARTCHAR at
ENCODING 64
DWIDTH 6 0
BBX 5 7 0 0
BITMAP
78
88
B8
A8
B8
80
78
ENDCHAR

STARTCHAR A
ENCODING 65
DWIDTH 4 0
BBX 3 7 0 0
BITMAP
E0
A0
A0
E0
A0
A0
A0
ENDCHAR

STARTCHAR B
ENCODING 66
DWIDTH 5 0
BBX 4 7 0 0
BITMAP
E0
90
90
E0
90
90
E0
ENDCHAR

STARTCHAR C
ENCODING 67
DWIDTH 4 0
BBX 3 7 0 0
BITMAP
E0
80
80
80
80
80
E0
ENDCHAR

STARTCHAR D
ENCODING 68
DWIDTH 5 0
BBX 4 7 0 0
BITMAP
E0
50
50
50
50
50
E0
ENDCHAR

STARTCHAR E
ENCODING 69
DWIDTH 4 0
BBX 3 7 0 0
BITMAP
E0
80
80
C0
80
80
E0
ENDCHAR

STARTCHAR F
ENCODING 70
DWIDTH 4 0
BBX 3 7 0 0
BITMAP
E0
80
80
C0
80
80
80
ENDCHAR

STARTCHAR G
ENCODING 71
DWIDTH 4 0
BBX 3 7 0 0
BITMAP
E0
80
80
80
A0
A0
E0
ENDCHAR

STARTCHAR H
ENCODING 72
DWIDTH 4 0
BBX 3 7 0 0
BITMAP
A0
A0
A0
E0
A0
A0
A0
ENDCHAR

STARTCHAR I
ENCODING 73
DWIDTH 2 0
BBX 1 7 0 0
BITMAP
80
80
80
80
80
80
80
ENDCHAR

STARTCHAR J
ENCODING 74
DWIDTH 4 0
BBX 3 7 0 0
BITMAP
60
20
20
20
20
A0
C0
ENDCHAR

STARTCHAR K
ENCODING 75
DWIDTH 5 0
BBX 4 7 0 0
BITMAP
90
A0
C0
80
C0
A0
90
ENDCHAR

STARTCHAR L
ENCODING 76
DWIDTH 4 0
BBX 3 7 0 0
BITMAP
80
80
80
80
80
80
E0
ENDCHAR

STARTCHAR M
ENCODING 77
DWIDTH 6 0
BBX 5 7 0 0
BITMAP
88
D8
A8
88
88
88
88
ENDCHAR

STARTCHAR N
ENCODING 78
DWIDTH 5 0
BBX 4 7 0 0
BITMAP
90
D0
D0
B0
B0
90
90
ENDCHAR

STARTCHAR O
ENCODING 79
DWIDTH 4 0
BBX 3 7 0 0
BITMAP
E0
A0
A0
A0
A0
A0
E0
ENDCHAR

STARTCHAR P
ENCODING 80
DWIDTH 4 0
BBX 3 7 0 0
BITMAP
E0
A0
A0
E0
80
80
80
ENDCHAR

 **
*  *
*  *
*  *
* **
 ***
STARTCHAR Q
ENCODING 81
DWIDTH 5 0
BBX 4 7 0 0
BITMAP
60
90
90
90
90
B0
70
ENDCHAR

STARTCHAR R
ENCODING 82
DWIDTH 5 0
BBX 4 7 0 0
BITMAP
E0
90
90
E0
C0
A0
90
ENDCHAR

STARTCHAR S
ENCODING 83
DWIDTH 4 0
BBX 3 7 0 0
BITMAP
E0
80
80
E0
20
20
E0
ENDCHAR

STARTCHAR T
ENCODING 84
DWIDTH 4 0
BBX 3 7 0 0
BITMAP
E0
40
40
40
40
40
40
ENDCHAR

STARTCHAR U
ENCODING 85
DWIDTH 4 0
BBX 3 7 0 0
BITMAP
A0
A0
A0
A0
A0
A0
E0
ENDCHAR

STARTCHAR V
ENCODING 86
DWIDTH 4 0
BBX 3 7 0 0
BITMAP
A0
A0
A0
A0
A0
A0
40
ENDCHAR

STARTCHAR W
ENCODING 87
DWIDTH 6 0
BBX 5 7 0 0
BITMAP
88
88
88
88
A8
D8
88
ENDCHAR

STARTCHAR X
ENCODING 88
DWIDTH 6 0
BBX 5 7 0 0
BITMAP
88
88
50
20
50
88
88
ENDCHAR

STARTCHAR Y
ENCODING 89
DWIDTH 4 0
BBX 3 7 0 0
BITMAP
A0
A0
A0
E0
40
40
40
ENDCHAR

STARTCHAR Z
ENCODING 90
DWIDTH 4 0
BBX 3 7 0 0
BITMAP
E0
20
40
40
80
80
E0
ENDCHAR

STARTCHAR bracketleft
ENCODING 91
DWIDTH 3 0
BBX 2 7 0 0
BITMAP
C0
80
80
80
80
80
C0
ENDCHAR

STARTCHAR backslash
ENCODING 92
DWIDTH 6 0
BBX 5 5 0 1
BITMAP
80
40
20
10
08
04
ENDCHAR

STARTCHAR bracketright
ENCODING 93
DWIDTH 3 0
BBX 2 7 0 0
BITMAP
C0
40
40
40
40
40
C0
ENDCHAR

STARTCHAR asciicircum
ENCODING 94
DWIDTH 5 0
BBX 4 2 0 5
BITMAP
40
A0
ENDCHAR

STARTCHAR underscore
ENCODING 95
DWIDTH 4 0
BBX 3 1 0 0
BITMAP
E0
ENDCHAR

STARTCHAR grave
ENCODING 96
DWIDTH 3 0
BBX 2 2 0 5
BITMAP
80
40
ENDCHAR

STARTCHAR a
ENCODING 97
DWIDTH 4 0
BBX 3 4 0 0
BITMAP
60
A0
A0
60
ENDCHAR

STARTCHAR b
ENCODING 98
DWIDTH 4 0
BBX 3 6 0 0
BITMAP
80
80
E0
A0
A0
E0
ENDCHAR

STARTCHAR c
ENCODING 99
DWIDTH 4 0
BBX 3 4 0 0
BITMAP
60
80
80
60
ENDCHAR

STARTCHAR d
ENCODING 100
DWIDTH 4 0
BBX 3 6 0 0
BITMAP
20
20
E0
A0
A0
E0
ENDCHAR

STARTCHAR e
ENCODING 101
DWIDTH 4 0
BBX 3 4 0 0
BITMAP
40
E0
80
60
ENDCHAR

STARTCHAR f
ENCODING 102
DWIDTH 3 0
BBX 2 6 0 0
BITMAP
40
80
C0
80
80
80
ENDCHAR

STARTCHAR g
ENCODING 103
DWIDTH 4 0
BBX 3 5 0 -1
BITMAP
E0
A0
E0
20
E0
ENDCHAR

STARTCHAR h
ENCODING 104
DWIDTH 4 0
BBX 3 6 0 0
BITMAP
80
80
C0
A0
A0
A0
ENDCHAR

STARTCHAR i
ENCODING 105
DWIDTH 2 0
BBX 1 6 0 0
BITMAP
80
00
80
80
80
80
ENDCHAR

STARTCHAR j
ENCODING 106
DWIDTH 3 0
BBX 2 7 0 -1
BITMAP
40
00
40
40
40
40
80
ENDCHAR

STARTCHAR k
ENCODING 107
DWIDTH 4 0
BBX 3 7 0 0
BITMAP
80
80
80
A0
C0
C0
A0
ENDCHAR

STARTCHAR l
ENCODING 108
DWIDTH 3 0
BBX 2 7 0 0
BITMAP
80
80
80
80
80
80
C0
ENDCHAR

STARTCHAR m
ENCODING 109
DWIDTH 6 0
BBX 5 4 0 0
BITMAP
D0
A8
A8
A8
A8
ENDCHAR

STARTCHAR n
ENCODING 110
DWIDTH 4 0
BBX 3 4 0 0
BITMAP
C0
A0
A0
A0
ENDCHAR

STARTCHAR o
ENCODING 111
DWIDTH 4 0
BBX 3 4 0 0
BITMAP
E0
A0
A0
E0
ENDCHAR

STARTCHAR p
ENCODING 112
DWIDTH 4 0
BBX 3 5 0 -1
BITMAP
E0
A0
A0
E0
80
ENDCHAR

STARTCHAR q
ENCODING 113
DWIDTH 4 0
BBX 3 5 0 -1
BITMAP
E0
A0
A0
E0
20
ENDCHAR

STARTCHAR r
ENCODING 114
DWIDTH 4 0
BBX 3 4 0 0
BITMAP
E0
80
80
80
ENDCHAR

STARTCHAR s
ENCODING 115
DWIDTH 5 0
BBX 4 4 0 0
BITMAP
60
E0
10
60
ENDCHAR

STARTCHAR t
ENCODING 116
DWIDTH 3 0
BBX 2 6 0 0
BITMAP
80
80
C0
80
80
C0
ENDCHAR

STARTCHAR u
ENCODING 117
DWIDTH 4 0
BBX 3 4 0 0
BITMAP
A0
A0
A0
60
ENDCHAR

STARTCHAR v
ENCODING 118
DWIDTH 4 0
BBX 3 4 0 0
BITMAP
A0
A0
A0
40
ENDCHAR

STARTCHAR w
ENCODING 119
DWIDTH 6 0
BBX 5 4 0 0
BITMAP
A8
A8
A8
50
ENDCHAR

STARTCHAR x
ENCODING 120
DWIDTH 5 0
BBX 4 4 0 0
BITMAP
90
60
60
90
ENDCHAR

STARTCHAR y
ENCODING 121
DWIDTH 4 0
BBX 3 5 0 -1
BITMAP
A0
A0
E0
20
E0
ENDCHAR

STARTCHAR z
ENCODING 122
DWIDTH 4 0
BBX 3 4 0 0
BITMAP
E0
40
80
E0
ENDCHAR

STARTCHAR braceleft
ENCODING 123
DWIDTH 4 0
BBX 3 7 0 0
BITMAP
60
40
40
C0
40
40
60
ENDCHAR

STARTCHAR bar
ENCODING 124
DWIDTH 2 0
BBX 1 7 0 0
BITMAP
80
80
80
80
80
80
80
ENDCHAR

STARTCHAR braceright
ENCODING 125
DWIDTH 4 0
BBX 3 7 0 0
BITMAP
C0
40
40
60
40
40
C0
ENDCHAR

STARTCHAR tilde
ENCODING 126
DWIDTH 5 0
BBX 4 2 0 5
BITMAP
50
A0
ENDCHAR

STARTCHAR zerowidthperiod
ENCODING 128
DWIDTH 0 0
BBX 1 1 -1 0
BITMAP
80
ENDCHAR

STARTCHAR zerowidthlowperiod
ENCODING 129
DWIDTH 0 0
BBX 1 1 -1 -1
BITMAP
80
ENDCHAR

STARTCHAR nospacebeforecolon
ENCODING 130
DWIDTH 1 0
BBX 1 4 -1 0
BITMAP
80
00
00
80
ENDCHAR

STARTCHAR nospaceaftercolon
ENCODING 131
DWIDTH 1 0
BBX 1 4 0 0
BITMAP
80
00
00
80
ENDCHAR

STARTCHAR zerowidthcolon
ENCODING 132
DWIDTH 0 0
BBX 1 4 -1 0
BITMAP
80
00
00
80
ENDCHAR

STARTCHAR degree
ENCODING 176
DWIDTH 4 0
BBX 3 3 0 4
BITMAP
E0
A0
E0
ENDCHAR

STARTCHAR narrowone
ENCODING 133
DWIDTH 2 0
BBX 1 7 0 0
BITMAP
80
80
80
80
80
80
80
ENDCHAR

STARTCHAR narrowtwo
ENCODING 134
DWIDTH 3 0
BBX 2 7 0 0
BITMAP
C0
40
40
C0
80
80
C0
ENDCHAR
ENDFONT
